<?xml version="1.0" encoding="UTF-8"?><svg xmlns="http://www.w3.org/2000/svg" xmlns:xlink="http://www.w3.org/1999/xlink" fill-opacity="1" color-rendering="auto" color-interpolation="auto" text-rendering="auto" stroke="black" stroke-linecap="square" width="1153" stroke-miterlimit="10" shape-rendering="auto" stroke-opacity="1" fill="black" stroke-dasharray="none" font-weight="normal" stroke-width="1" height="796" font-family="'Dialog'" font-style="normal" stroke-linejoin="miter" font-size="12px" stroke-dashoffset="0" image-rendering="auto">
  <!--Generated by ySVG 2.5-->
  <defs id="genericDefs"/>
  <g>
    <defs id="defs1">
      <clipPath clipPathUnits="userSpaceOnUse" id="clipPath1">
        <path d="M0 0 L1153 0 L1153 796 L0 796 L0 0 Z"/>
      </clipPath>
      <clipPath clipPathUnits="userSpaceOnUse" id="clipPath2">
        <path d="M50 -57 L1203 -57 L1203 739 L50 739 L50 -57 Z"/>
      </clipPath>
    </defs>
    <g fill="white" text-rendering="geometricPrecision" shape-rendering="geometricPrecision" transform="translate(-50,57)" stroke="white">
      <rect x="50" width="1153" height="796" y="-57" clip-path="url(#clipPath2)" stroke="none"/>
    </g>
    <g fill="rgb(176,176,176)" text-rendering="geometricPrecision" shape-rendering="geometricPrecision" transform="matrix(1,0,0,1,-50,57)" stroke="rgb(176,176,176)">
      <rect x="120" y="352" clip-path="url(#clipPath2)" width="176" rx="4" ry="4" height="101" stroke="none"/>
    </g>
    <g text-rendering="geometricPrecision" stroke-miterlimit="1.45" shape-rendering="geometricPrecision" transform="matrix(1,0,0,1,-50,57)" stroke-linecap="butt">
      <rect x="120" y="352" clip-path="url(#clipPath2)" fill="none" width="176" rx="4" ry="4" height="101"/>
      <text x="91.7383" font-size="15px" y="472.9233" clip-path="url(#clipPath2)" font-family="sans-serif" stroke="none" xml:space="preserve">Reviewer</text>
      <line y2="476.4609" fill="none" x1="67.4365" clip-path="url(#clipPath2)" x2="185.6275" y1="476.4609"/>
      <text x="67.4365" font-size="15px" y="490.3843" clip-path="url(#clipPath2)" font-family="sans-serif" stroke="none" xml:space="preserve">Researcher pod</text>
      <line y2="493.9219" fill="none" x1="67.4365" clip-path="url(#clipPath2)" x2="185.6275" y1="493.9219"/>
    </g>
    <g fill="rgb(176,176,176)" text-rendering="geometricPrecision" shape-rendering="geometricPrecision" transform="matrix(1,0,0,1,-50,57)" stroke="rgb(176,176,176)">
      <rect x="550" y="560" clip-path="url(#clipPath2)" width="176" rx="4" ry="4" height="101" stroke="none"/>
    </g>
    <g text-rendering="geometricPrecision" stroke-miterlimit="1.45" shape-rendering="geometricPrecision" transform="matrix(1,0,0,1,-50,57)" stroke-linecap="butt">
      <rect x="550" y="560" clip-path="url(#clipPath2)" fill="none" width="176" rx="4" ry="4" height="101"/>
      <text x="600.0422" font-size="15px" y="680.9233" clip-path="url(#clipPath2)" font-family="sans-serif" stroke="none" xml:space="preserve">Institution</text>
      <line y2="684.4609" fill="none" x1="600.0422" clip-path="url(#clipPath2)" x2="675.9578" y1="684.4609"/>
    </g>
    <g fill="rgb(176,176,176)" text-rendering="geometricPrecision" shape-rendering="geometricPrecision" transform="matrix(1,0,0,1,-50,57)" stroke="rgb(176,176,176)">
      <rect x="550" y="352" clip-path="url(#clipPath2)" width="176" rx="4" ry="4" height="101" stroke="none"/>
    </g>
    <g text-rendering="geometricPrecision" stroke-miterlimit="1.45" shape-rendering="geometricPrecision" transform="matrix(1,0,0,1,-50,57)" stroke-linecap="butt">
      <rect x="550" y="352" clip-path="url(#clipPath2)" fill="none" width="176" rx="4" ry="4" height="101"/>
      <text x="651.8816" font-size="15px" y="477.9233" clip-path="url(#clipPath2)" font-family="sans-serif" stroke="none" xml:space="preserve">Orchestrator</text>
      <line y2="481.4609" fill="none" x1="651.8816" clip-path="url(#clipPath2)" x2="747.1184" y1="481.4609"/>
    </g>
    <g fill="rgb(0,204,255)" text-rendering="geometricPrecision" shape-rendering="geometricPrecision" transform="matrix(1,0,0,1,-50,57)" stroke="rgb(0,204,255)">
      <rect x="137" width="63" height="30" y="408" clip-path="url(#clipPath2)" stroke="none"/>
    </g>
    <g text-rendering="geometricPrecision" stroke-miterlimit="1.45" shape-rendering="geometricPrecision" transform="matrix(1,0,0,1,-50,57)" stroke-linecap="butt">
      <rect fill="none" x="137" width="63" height="30" y="408" clip-path="url(#clipPath2)"/>
      <text x="152" xml:space="preserve" y="427.1543" clip-path="url(#clipPath2)" font-family="sans-serif" stroke="none">inbox</text>
    </g>
    <g fill="rgb(255,102,0)" text-rendering="geometricPrecision" shape-rendering="geometricPrecision" transform="matrix(1,0,0,1,-50,57)" stroke="rgb(255,102,0)">
      <rect x="137" width="63" height="30" y="364" clip-path="url(#clipPath2)" stroke="none"/>
    </g>
    <g text-rendering="geometricPrecision" stroke-miterlimit="1.45" shape-rendering="geometricPrecision" transform="matrix(1,0,0,1,-50,57)" stroke-linecap="butt">
      <rect fill="none" x="137" width="63" height="30" y="364" clip-path="url(#clipPath2)"/>
      <text x="145.707" xml:space="preserve" y="383.1543" clip-path="url(#clipPath2)" font-family="sans-serif" stroke="none">storage</text>
    </g>
    <g fill="rgb(0,204,255)" text-rendering="geometricPrecision" shape-rendering="geometricPrecision" transform="matrix(1,0,0,1,-50,57)" stroke="rgb(0,204,255)">
      <rect x="566" width="63" height="30" y="408" clip-path="url(#clipPath2)" stroke="none"/>
    </g>
    <g text-rendering="geometricPrecision" stroke-miterlimit="1.45" shape-rendering="geometricPrecision" transform="matrix(1,0,0,1,-50,57)" stroke-linecap="butt">
      <rect fill="none" x="566" width="63" height="30" y="408" clip-path="url(#clipPath2)"/>
      <text x="581" xml:space="preserve" y="427.1543" clip-path="url(#clipPath2)" font-family="sans-serif" stroke="none">inbox</text>
    </g>
    <g fill="red" text-rendering="geometricPrecision" shape-rendering="geometricPrecision" transform="matrix(1,0,0,1,-50,57)" stroke="red">
      <rect x="566" width="151" height="30" y="363" clip-path="url(#clipPath2)" stroke="none"/>
    </g>
    <g text-rendering="geometricPrecision" stroke-miterlimit="1.45" shape-rendering="geometricPrecision" transform="matrix(1,0,0,1,-50,57)" stroke-linecap="butt">
      <rect fill="none" x="566" width="151" height="30" y="363" clip-path="url(#clipPath2)"/>
      <text x="578.0547" xml:space="preserve" y="382.1543" clip-path="url(#clipPath2)" font-family="sans-serif" stroke="none">orchestration service</text>
    </g>
    <g fill="rgb(204,153,255)" text-rendering="geometricPrecision" shape-rendering="geometricPrecision" transform="matrix(1,0,0,1,-50,57)" stroke="rgb(204,153,255)">
      <rect x="562.5" width="151" height="30" y="571" clip-path="url(#clipPath2)" stroke="none"/>
    </g>
    <g text-rendering="geometricPrecision" stroke-miterlimit="1.45" shape-rendering="geometricPrecision" transform="matrix(1,0,0,1,-50,57)" stroke-linecap="butt">
      <rect fill="none" x="562.5" width="151" height="30" y="571" clip-path="url(#clipPath2)"/>
      <text x="606.374" xml:space="preserve" y="590.1543" clip-path="url(#clipPath2)" font-family="sans-serif" stroke="none">Affiliations</text>
    </g>
    <g fill="rgb(204,153,255)" text-rendering="geometricPrecision" shape-rendering="geometricPrecision" transform="matrix(1,0,0,1,-50,57)" stroke="rgb(204,153,255)">
      <rect x="562.5" width="151" height="30" y="622" clip-path="url(#clipPath2)" stroke="none"/>
    </g>
    <g text-rendering="geometricPrecision" stroke-miterlimit="1.45" shape-rendering="geometricPrecision" transform="matrix(1,0,0,1,-50,57)" stroke-linecap="butt">
      <rect fill="none" x="562.5" width="151" height="30" y="622" clip-path="url(#clipPath2)"/>
      <text x="583.7129" xml:space="preserve" y="641.1543" clip-path="url(#clipPath2)" font-family="sans-serif" stroke="none">Policies &amp; triggers</text>
    </g>
    <g fill="rgb(176,176,176)" text-rendering="geometricPrecision" shape-rendering="geometricPrecision" transform="matrix(1,0,0,1,-50,57)" stroke="rgb(176,176,176)">
      <rect x="967" y="352" clip-path="url(#clipPath2)" width="176" rx="4" ry="4" height="101" stroke="none"/>
    </g>
    <g text-rendering="geometricPrecision" stroke-miterlimit="1.45" shape-rendering="geometricPrecision" transform="matrix(1,0,0,1,-50,57)" stroke-linecap="butt">
      <rect x="967" y="352" clip-path="url(#clipPath2)" fill="none" width="176" rx="4" ry="4" height="101"/>
      <text x="1000.0088" font-size="15px" y="472.9233" clip-path="url(#clipPath2)" font-family="sans-serif" stroke="none" xml:space="preserve">Certification Service hub</text>
      <line y2="476.4609" fill="none" x1="1000.0088" clip-path="url(#clipPath2)" x2="1185.0552" y1="476.4609"/>
    </g>
    <g fill="red" text-rendering="geometricPrecision" shape-rendering="geometricPrecision" transform="matrix(1,0,0,1,-50,57)" stroke="red">
      <rect x="979.5" width="151" height="30" y="364" clip-path="url(#clipPath2)" stroke="none"/>
    </g>
    <g text-rendering="geometricPrecision" stroke-miterlimit="1.45" shape-rendering="geometricPrecision" transform="matrix(1,0,0,1,-50,57)" stroke-linecap="butt">
      <rect fill="none" x="979.5" width="151" height="30" y="364" clip-path="url(#clipPath2)"/>
      <text x="1006.751" xml:space="preserve" y="383.1543" clip-path="url(#clipPath2)" font-family="sans-serif" stroke="none">running process</text>
    </g>
    <g fill="rgb(176,176,176)" text-rendering="geometricPrecision" shape-rendering="geometricPrecision" transform="matrix(1,0,0,1,-50,57)" stroke="rgb(176,176,176)">
      <rect x="120" y="560" clip-path="url(#clipPath2)" width="176" rx="4" ry="4" height="101" stroke="none"/>
    </g>
    <g text-rendering="geometricPrecision" stroke-miterlimit="1.45" shape-rendering="geometricPrecision" transform="matrix(1,0,0,1,-50,57)" stroke-linecap="butt">
      <rect x="120" y="560" clip-path="url(#clipPath2)" fill="none" width="176" rx="4" ry="4" height="101"/>
      <text x="131.2971" font-size="15px" y="680.9233" clip-path="url(#clipPath2)" font-family="sans-serif" stroke="none" xml:space="preserve">Scholarly dashboard</text>
      <line y2="684.4609" fill="none" x1="131.2971" clip-path="url(#clipPath2)" x2="284.7029" y1="684.4609"/>
    </g>
    <g fill="rgb(255,102,0)" text-rendering="geometricPrecision" shape-rendering="geometricPrecision" transform="matrix(1,0,0,1,-50,57)" stroke="rgb(255,102,0)">
      <rect x="1067.5" width="63" height="30" y="409" clip-path="url(#clipPath2)" stroke="none"/>
    </g>
    <g text-rendering="geometricPrecision" stroke-miterlimit="1.45" shape-rendering="geometricPrecision" transform="matrix(1,0,0,1,-50,57)" stroke-linecap="butt">
      <rect fill="none" x="1067.5" width="63" height="30" y="409" clip-path="url(#clipPath2)"/>
      <text x="1076.207" xml:space="preserve" y="428.1543" clip-path="url(#clipPath2)" font-family="sans-serif" stroke="none">storage</text>
    </g>
    <g fill="rgb(204,153,255)" text-rendering="geometricPrecision" shape-rendering="geometricPrecision" transform="matrix(1,0,0,1,-50,57)" stroke="rgb(204,153,255)">
      <rect x="132.5" width="151" height="30" y="618" clip-path="url(#clipPath2)" stroke="none"/>
    </g>
    <g text-rendering="geometricPrecision" stroke-miterlimit="1.45" shape-rendering="geometricPrecision" transform="matrix(1,0,0,1,-50,57)" stroke-linecap="butt">
      <rect fill="none" x="132.5" width="151" height="30" y="618" clip-path="url(#clipPath2)"/>
      <text x="153.7129" xml:space="preserve" y="637.1543" clip-path="url(#clipPath2)" font-family="sans-serif" stroke="none">Policies &amp; triggers</text>
    </g>
    <g fill="rgb(0,204,255)" text-rendering="geometricPrecision" shape-rendering="geometricPrecision" transform="matrix(1,0,0,1,-50,57)" stroke="rgb(0,204,255)">
      <rect x="980" width="63" height="30" y="409" clip-path="url(#clipPath2)" stroke="none"/>
    </g>
    <g text-rendering="geometricPrecision" stroke-miterlimit="1.45" shape-rendering="geometricPrecision" transform="matrix(1,0,0,1,-50,57)" stroke-linecap="butt">
      <rect fill="none" x="980" width="63" height="30" y="409" clip-path="url(#clipPath2)"/>
      <text x="995" xml:space="preserve" y="428.1543" clip-path="url(#clipPath2)" font-family="sans-serif" stroke="none">inbox</text>
    </g>
    <g fill="rgb(176,176,176)" text-rendering="geometricPrecision" shape-rendering="geometricPrecision" transform="matrix(1,0,0,1,-50,57)" stroke="rgb(176,176,176)">
      <rect x="120" y="159" clip-path="url(#clipPath2)" width="176" rx="4" ry="4" height="101" stroke="none"/>
    </g>
    <g text-rendering="geometricPrecision" stroke-miterlimit="1.45" shape-rendering="geometricPrecision" transform="matrix(1,0,0,1,-50,57)" stroke-linecap="butt">
      <rect x="120" y="159" clip-path="url(#clipPath2)" fill="none" width="176" rx="4" ry="4" height="101"/>
      <text x="70.9046" font-size="15px" y="279.9233" clip-path="url(#clipPath2)" font-family="sans-serif" stroke="none" xml:space="preserve">Artefact owner</text>
      <line y2="283.4609" fill="none" x1="67.4365" clip-path="url(#clipPath2)" x2="185.6275" y1="283.4609"/>
      <text x="67.4365" font-size="15px" y="297.3843" clip-path="url(#clipPath2)" font-family="sans-serif" stroke="none" xml:space="preserve">Researcher pod</text>
      <line y2="300.9219" fill="none" x1="67.4365" clip-path="url(#clipPath2)" x2="185.6275" y1="300.9219"/>
    </g>
    <g fill="rgb(0,204,255)" text-rendering="geometricPrecision" shape-rendering="geometricPrecision" transform="matrix(1,0,0,1,-50,57)" stroke="rgb(0,204,255)">
      <rect x="137" width="63" height="30" y="215" clip-path="url(#clipPath2)" stroke="none"/>
    </g>
    <g text-rendering="geometricPrecision" stroke-miterlimit="1.45" shape-rendering="geometricPrecision" transform="matrix(1,0,0,1,-50,57)" stroke-linecap="butt">
      <rect fill="none" x="137" width="63" height="30" y="215" clip-path="url(#clipPath2)"/>
      <text x="152" xml:space="preserve" y="234.1543" clip-path="url(#clipPath2)" font-family="sans-serif" stroke="none">inbox</text>
    </g>
    <g fill="rgb(255,102,0)" text-rendering="geometricPrecision" shape-rendering="geometricPrecision" transform="matrix(1,0,0,1,-50,57)" stroke="rgb(255,102,0)">
      <rect x="137" width="63" height="30" y="171" clip-path="url(#clipPath2)" stroke="none"/>
    </g>
    <g text-rendering="geometricPrecision" stroke-miterlimit="1.45" shape-rendering="geometricPrecision" transform="matrix(1,0,0,1,-50,57)" stroke-linecap="butt">
      <rect fill="none" x="137" width="63" height="30" y="171" clip-path="url(#clipPath2)"/>
      <text x="145.707" xml:space="preserve" y="190.1543" clip-path="url(#clipPath2)" font-family="sans-serif" stroke="none">storage</text>
    </g>
    <g fill="rgb(176,176,176)" text-rendering="geometricPrecision" shape-rendering="geometricPrecision" transform="matrix(1,0,0,1,-50,57)" stroke="rgb(176,176,176)">
      <rect x="967" y="-30" clip-path="url(#clipPath2)" width="176" rx="4" ry="4" height="101" stroke="none"/>
    </g>
    <g text-rendering="geometricPrecision" stroke-miterlimit="1.45" shape-rendering="geometricPrecision" transform="matrix(1,0,0,1,-50,57)" stroke-linecap="butt">
      <rect x="967" y="-30" clip-path="url(#clipPath2)" fill="none" width="176" rx="4" ry="4" height="101"/>
      <text x="962.6819" font-size="15px" y="90.9233" clip-path="url(#clipPath2)" font-family="sans-serif" stroke="none" xml:space="preserve">Registration Service hub</text>
      <line y2="94.4609" fill="none" x1="962.6819" clip-path="url(#clipPath2)" x2="1147.3181" y1="94.4609"/>
    </g>
    <g fill="red" text-rendering="geometricPrecision" shape-rendering="geometricPrecision" transform="matrix(1,0,0,1,-50,57)" stroke="red">
      <rect x="979.5" width="151" height="30" y="-18" clip-path="url(#clipPath2)" stroke="none"/>
    </g>
    <g text-rendering="geometricPrecision" stroke-miterlimit="1.45" shape-rendering="geometricPrecision" transform="matrix(1,0,0,1,-50,57)" stroke-linecap="butt">
      <rect fill="none" x="979.5" width="151" height="30" y="-18" clip-path="url(#clipPath2)"/>
      <text x="1006.751" xml:space="preserve" y="1.1543" clip-path="url(#clipPath2)" font-family="sans-serif" stroke="none">running process</text>
    </g>
    <g fill="rgb(255,102,0)" text-rendering="geometricPrecision" shape-rendering="geometricPrecision" transform="matrix(1,0,0,1,-50,57)" stroke="rgb(255,102,0)">
      <rect x="1067.5" width="63" height="30" y="27" clip-path="url(#clipPath2)" stroke="none"/>
    </g>
    <g text-rendering="geometricPrecision" stroke-miterlimit="1.45" shape-rendering="geometricPrecision" transform="matrix(1,0,0,1,-50,57)" stroke-linecap="butt">
      <rect fill="none" x="1067.5" width="63" height="30" y="27" clip-path="url(#clipPath2)"/>
      <text x="1076.207" xml:space="preserve" y="46.1543" clip-path="url(#clipPath2)" font-family="sans-serif" stroke="none">storage</text>
    </g>
    <g fill="rgb(0,204,255)" text-rendering="geometricPrecision" shape-rendering="geometricPrecision" transform="matrix(1,0,0,1,-50,57)" stroke="rgb(0,204,255)">
      <rect x="980" width="63" height="30" y="27" clip-path="url(#clipPath2)" stroke="none"/>
    </g>
    <g text-rendering="geometricPrecision" stroke-miterlimit="1.45" shape-rendering="geometricPrecision" transform="matrix(1,0,0,1,-50,57)" stroke-linecap="butt">
      <rect fill="none" x="980" width="63" height="30" y="27" clip-path="url(#clipPath2)"/>
      <text x="995" xml:space="preserve" y="46.1543" clip-path="url(#clipPath2)" font-family="sans-serif" stroke="none">inbox</text>
      <path fill="none" d="M638 461.002 L638 552.0129" clip-path="url(#clipPath2)"/>
      <path d="M638 453.002 L633 465.002 L638 462.002 L643 465.002 Z" clip-path="url(#clipPath2)" stroke="none"/>
      <path d="M638 560.0129 L643 548.0129 L638 551.0129 L633 548.0129 Z" clip-path="url(#clipPath2)" stroke="none"/>
      <text x="491.0898" xml:space="preserve" y="498.3599" clip-path="url(#clipPath2)" font-family="sans-serif" stroke="none">3. Check affiliation + </text>
      <text x="507.918" xml:space="preserve" y="512.3287" clip-path="url(#clipPath2)" font-family="sans-serif" stroke="none">retrieve policies</text>
      <text x="489.707" xml:space="preserve" y="526.2974" clip-path="url(#clipPath2)" font-family="sans-serif" stroke="none">of affiliated institution</text>
      <path fill="none" d="M612.1667 408 L621.2404 398.7201" clip-path="url(#clipPath2)"/>
      <path d="M626.8333 393 L614.8689 398.0845 L620.5413 399.4351 L622.019 405.0757 Z" clip-path="url(#clipPath2)" stroke="none"/>
      <text x="635.5222" xml:space="preserve" y="421.2409" clip-path="url(#clipPath2)" font-family="sans-serif" stroke="none">2. notify event</text>
      <path fill="none" d="M660.7932 362.9986 L661.0937 362.0307 L661.5 358 L661.0937 353.9693 L659.9283 350.2151 L658.0843 346.8178 L655.6422 343.8578 L652.6822 341.4157 L649.2849 339.5717 L645.5307 338.4063 L641.5 338 L637.4693 338.4063 L633.7151 339.5717 L630.3178 341.4157 L627.3578 343.8578 L624.9157 346.8178 L623.0717 350.2151 L621.9063 353.9693 L621.8015 355.0089 L621.8155 355.1079" clip-path="url(#clipPath2)"/>
      <path d="M622.2117 363.0981 L626.6113 350.8652 L621.766 354.1091 L616.6235 351.3604 Z" clip-path="url(#clipPath2)" stroke="none"/>
      <text x="555.8965" xml:space="preserve" y="314.4043" clip-path="url(#clipPath2)" font-family="sans-serif" stroke="none">4. Fire "Peer certification" trigger</text>
      <path fill="none" d="M717 378.1826 L971.5 378.7981" clip-path="url(#clipPath2)"/>
      <path d="M979.5 378.8174 L967.5121 373.7884 L970.5 378.7957 L967.4879 383.7884 Z" clip-path="url(#clipPath2)" stroke="none"/>
      <text x="769.3623" xml:space="preserve" y="405.67" clip-path="url(#clipPath2)" font-family="sans-serif" stroke="none">5. Call registration service</text>
      <text x="770.0244" xml:space="preserve" y="419.6388" clip-path="url(#clipPath2)" font-family="sans-serif" stroke="none">(Or again using an inbox) </text>
      <path fill="none" d="M1074.2932 363.9986 L1074.5936 363.0307 L1075 359 L1074.5936 354.9693 L1073.4283 351.2151 L1071.5844 347.8178 L1069.1421 344.8578 L1066.1823 342.4157 L1062.7849 340.5717 L1059.0306 339.4063 L1055 339 L1050.9694 339.4063 L1047.2151 340.5717 L1043.8177 342.4157 L1040.8579 344.8578 L1038.4156 347.8178 L1036.5717 351.2151 L1035.4064 354.9693 L1035.3015 356.0089 L1035.3156 356.1079" clip-path="url(#clipPath2)"/>
      <path d="M1035.7117 364.0981 L1040.1113 351.8652 L1035.266 355.1091 L1030.1235 352.3604 Z" clip-path="url(#clipPath2)" stroke="none"/>
      <text x="955.167" xml:space="preserve" y="310.4355" clip-path="url(#clipPath2)" font-family="sans-serif" stroke="none">6. Select peers</text>
      <text x="970.1875" xml:space="preserve" y="324.4043" clip-path="url(#clipPath2)" font-family="sans-serif" stroke="none">to review </text>
      <text x="976.3721" xml:space="preserve" y="338.373" clip-path="url(#clipPath2)" font-family="sans-serif" stroke="none">artefact</text>
      <path fill="none" d="M1079.5 364.0135 L1079.5 273.25 L261.5 273.25 L261.5 422 L207.9995 422.5753" clip-path="url(#clipPath2)"/>
      <path d="M200 422.6613 L212.0531 427.532 L208.9995 422.5645 L211.9456 417.5326 Z" clip-path="url(#clipPath2)" stroke="none"/>
      <text x="900.1572" xml:space="preserve" y="247.4043" clip-path="url(#clipPath2)" font-family="sans-serif" stroke="none">7. Notify of pending review</text>
      <path fill="none" d="M1099 363.9603 L1099 170 L521.532 170 L521.532 423 L558 423" clip-path="url(#clipPath2)"/>
      <path d="M566 423 L554 418 L557 423 L554 428 Z" clip-path="url(#clipPath2)" stroke="none"/>
      <path fill="none" d="M208 461.002 L208 552.0129" clip-path="url(#clipPath2)"/>
      <path d="M208 453.002 L203 465.002 L208 462.002 L213 465.002 Z" clip-path="url(#clipPath2)" stroke="none"/>
      <path d="M208 560.0129 L213 548.0129 L208 551.0129 L203 548.0129 Z" clip-path="url(#clipPath2)" stroke="none"/>
      <text x="228.0186" xml:space="preserve" y="508.2637" clip-path="url(#clipPath2)" font-family="sans-serif" stroke="none">8. Peer review</text>
      <text x="247.8115" xml:space="preserve" y="522.2324" clip-path="url(#clipPath2)" font-family="sans-serif" stroke="none">process</text>
      <text x="246.8506" xml:space="preserve" y="536.2012" clip-path="url(#clipPath2)" font-family="sans-serif" stroke="none">+ store </text>
      <text x="251.0254" xml:space="preserve" y="550.1699" clip-path="url(#clipPath2)" font-family="sans-serif" stroke="none">review</text>
      <path fill="none" d="M296.0255 402.5 L400.5 402.5 L400.5 724 L983.5 724 L983.5 447.0078" clip-path="url(#clipPath2)"/>
      <path d="M983.5 439.0078 L978.5 451.0078 L983.5 448.0078 L988.5 451.0078 Z" clip-path="url(#clipPath2)" stroke="none"/>
      <text x="307.5967" xml:space="preserve" y="376.6543" clip-path="url(#clipPath2)" font-family="sans-serif" stroke="none">9. Notify review lifecycle event</text>
      <path fill="none" d="M1101 352.0448 L1101 170 L404.532 170 L404.532 230 L208 230" clip-path="url(#clipPath2)"/>
      <path d="M200 230 L212 235 L209 230 L212 225 Z" clip-path="url(#clipPath2)" stroke="none"/>
      <text x="869.2917" xml:space="preserve" y="145.3834" clip-path="url(#clipPath2)" font-family="sans-serif" stroke="none">10. Notify orchestrator and artefact owner</text>
      <text x="907.7468" xml:space="preserve" y="159.3521" clip-path="url(#clipPath2)" font-family="sans-serif" stroke="none">of certification lifecycle event</text>
      <path fill="none" d="M979.5 -3 L501.532 -3 L501.532 434.328 L557.9636 434.328" clip-path="url(#clipPath2)"/>
      <path d="M565.9636 434.328 L553.9636 429.328 L556.9636 434.328 L553.9636 439.328 Z" clip-path="url(#clipPath2)" stroke="none"/>
      <text x="552.9222" xml:space="preserve" y="-28.8457" clip-path="url(#clipPath2)" font-family="sans-serif" stroke="none">1. TRIGGER: notification of artefact registration lifecycle event</text>
    </g>
  </g>
</svg>
