<?xml version="1.0" encoding="UTF-8"?><svg xmlns="http://www.w3.org/2000/svg" xmlns:xlink="http://www.w3.org/1999/xlink" fill-opacity="1" color-rendering="auto" color-interpolation="auto" text-rendering="auto" stroke="black" stroke-linecap="square" width="1082" stroke-miterlimit="10" shape-rendering="auto" stroke-opacity="1" fill="black" stroke-dasharray="none" font-weight="normal" stroke-width="1" height="554" font-family="'Dialog'" font-style="normal" stroke-linejoin="miter" font-size="12px" stroke-dashoffset="0" image-rendering="auto">
  <!--Generated by ySVG 2.5-->
  <defs id="genericDefs"/>
  <g>
    <defs id="defs1">
      <clipPath clipPathUnits="userSpaceOnUse" id="clipPath1">
        <path d="M0 0 L1082 0 L1082 554 L0 554 L0 0 Z"/>
      </clipPath>
      <clipPath clipPathUnits="userSpaceOnUse" id="clipPath2">
        <path d="M76 148 L1158 148 L1158 702 L76 702 L76 148 Z"/>
      </clipPath>
    </defs>
    <g fill="white" text-rendering="geometricPrecision" shape-rendering="geometricPrecision" transform="translate(-76,-148)" stroke="white">
      <rect x="76" width="1082" height="554" y="148" clip-path="url(#clipPath2)" stroke="none"/>
    </g>
    <g fill="rgb(176,176,176)" text-rendering="geometricPrecision" shape-rendering="geometricPrecision" transform="matrix(1,0,0,1,-76,-148)" stroke="rgb(176,176,176)">
      <rect x="120" y="352" clip-path="url(#clipPath2)" width="176" rx="4" ry="4" height="101" stroke="none"/>
    </g>
    <g text-rendering="geometricPrecision" stroke-miterlimit="1.45" shape-rendering="geometricPrecision" transform="matrix(1,0,0,1,-76,-148)" stroke-linecap="butt">
      <rect x="120" y="352" clip-path="url(#clipPath2)" fill="none" width="176" rx="4" ry="4" height="101"/>
      <text x="148.9045" font-size="15px" y="472.9233" clip-path="url(#clipPath2)" font-family="sans-serif" stroke="none" xml:space="preserve">Researcher pod</text>
      <line y2="476.4609" fill="none" x1="148.9045" clip-path="url(#clipPath2)" x2="267.0955" y1="476.4609"/>
    </g>
    <g fill="rgb(176,176,176)" text-rendering="geometricPrecision" shape-rendering="geometricPrecision" transform="matrix(1,0,0,1,-76,-148)" stroke="rgb(176,176,176)">
      <rect x="550" y="560" clip-path="url(#clipPath2)" width="176" rx="4" ry="4" height="101" stroke="none"/>
    </g>
    <g text-rendering="geometricPrecision" stroke-miterlimit="1.45" shape-rendering="geometricPrecision" transform="matrix(1,0,0,1,-76,-148)" stroke-linecap="butt">
      <rect x="550" y="560" clip-path="url(#clipPath2)" fill="none" width="176" rx="4" ry="4" height="101"/>
      <text x="600.0422" font-size="15px" y="680.9233" clip-path="url(#clipPath2)" font-family="sans-serif" stroke="none" xml:space="preserve">Institution</text>
      <line y2="684.4609" fill="none" x1="600.0422" clip-path="url(#clipPath2)" x2="675.9578" y1="684.4609"/>
    </g>
    <g fill="rgb(176,176,176)" text-rendering="geometricPrecision" shape-rendering="geometricPrecision" transform="matrix(1,0,0,1,-76,-148)" stroke="rgb(176,176,176)">
      <rect x="550" y="352" clip-path="url(#clipPath2)" width="176" rx="4" ry="4" height="101" stroke="none"/>
    </g>
    <g text-rendering="geometricPrecision" stroke-miterlimit="1.45" shape-rendering="geometricPrecision" transform="matrix(1,0,0,1,-76,-148)" stroke-linecap="butt">
      <rect x="550" y="352" clip-path="url(#clipPath2)" fill="none" width="176" rx="4" ry="4" height="101"/>
      <text x="651.8816" font-size="15px" y="477.9233" clip-path="url(#clipPath2)" font-family="sans-serif" stroke="none" xml:space="preserve">Orchestrator</text>
      <line y2="481.4609" fill="none" x1="651.8816" clip-path="url(#clipPath2)" x2="747.1184" y1="481.4609"/>
    </g>
    <g fill="rgb(0,204,255)" text-rendering="geometricPrecision" shape-rendering="geometricPrecision" transform="matrix(1,0,0,1,-76,-148)" stroke="rgb(0,204,255)">
      <rect x="137" width="63" height="30" y="408" clip-path="url(#clipPath2)" stroke="none"/>
    </g>
    <g text-rendering="geometricPrecision" stroke-miterlimit="1.45" shape-rendering="geometricPrecision" transform="matrix(1,0,0,1,-76,-148)" stroke-linecap="butt">
      <rect fill="none" x="137" width="63" height="30" y="408" clip-path="url(#clipPath2)"/>
      <text x="152" xml:space="preserve" y="427.1543" clip-path="url(#clipPath2)" font-family="sans-serif" stroke="none">inbox</text>
    </g>
    <g fill="rgb(255,102,0)" text-rendering="geometricPrecision" shape-rendering="geometricPrecision" transform="matrix(1,0,0,1,-76,-148)" stroke="rgb(255,102,0)">
      <rect x="137" width="63" height="30" y="364" clip-path="url(#clipPath2)" stroke="none"/>
    </g>
    <g text-rendering="geometricPrecision" stroke-miterlimit="1.45" shape-rendering="geometricPrecision" transform="matrix(1,0,0,1,-76,-148)" stroke-linecap="butt">
      <rect fill="none" x="137" width="63" height="30" y="364" clip-path="url(#clipPath2)"/>
      <text x="145.707" xml:space="preserve" y="383.1543" clip-path="url(#clipPath2)" font-family="sans-serif" stroke="none">storage</text>
    </g>
    <g fill="rgb(0,204,255)" text-rendering="geometricPrecision" shape-rendering="geometricPrecision" transform="matrix(1,0,0,1,-76,-148)" stroke="rgb(0,204,255)">
      <rect x="566" width="63" height="30" y="408" clip-path="url(#clipPath2)" stroke="none"/>
    </g>
    <g text-rendering="geometricPrecision" stroke-miterlimit="1.45" shape-rendering="geometricPrecision" transform="matrix(1,0,0,1,-76,-148)" stroke-linecap="butt">
      <rect fill="none" x="566" width="63" height="30" y="408" clip-path="url(#clipPath2)"/>
      <text x="581" xml:space="preserve" y="427.1543" clip-path="url(#clipPath2)" font-family="sans-serif" stroke="none">inbox</text>
    </g>
    <g fill="red" text-rendering="geometricPrecision" shape-rendering="geometricPrecision" transform="matrix(1,0,0,1,-76,-148)" stroke="red">
      <rect x="566" width="151" height="30" y="363" clip-path="url(#clipPath2)" stroke="none"/>
    </g>
    <g text-rendering="geometricPrecision" stroke-miterlimit="1.45" shape-rendering="geometricPrecision" transform="matrix(1,0,0,1,-76,-148)" stroke-linecap="butt">
      <rect fill="none" x="566" width="151" height="30" y="363" clip-path="url(#clipPath2)"/>
      <text x="578.0547" xml:space="preserve" y="382.1543" clip-path="url(#clipPath2)" font-family="sans-serif" stroke="none">orchestration service</text>
    </g>
    <g fill="rgb(204,153,255)" text-rendering="geometricPrecision" shape-rendering="geometricPrecision" transform="matrix(1,0,0,1,-76,-148)" stroke="rgb(204,153,255)">
      <rect x="562.5" width="151" height="30" y="571" clip-path="url(#clipPath2)" stroke="none"/>
    </g>
    <g text-rendering="geometricPrecision" stroke-miterlimit="1.45" shape-rendering="geometricPrecision" transform="matrix(1,0,0,1,-76,-148)" stroke-linecap="butt">
      <rect fill="none" x="562.5" width="151" height="30" y="571" clip-path="url(#clipPath2)"/>
      <text x="606.374" xml:space="preserve" y="590.1543" clip-path="url(#clipPath2)" font-family="sans-serif" stroke="none">Affiliations</text>
    </g>
    <g fill="rgb(204,153,255)" text-rendering="geometricPrecision" shape-rendering="geometricPrecision" transform="matrix(1,0,0,1,-76,-148)" stroke="rgb(204,153,255)">
      <rect x="562.5" width="151" height="30" y="622" clip-path="url(#clipPath2)" stroke="none"/>
    </g>
    <g text-rendering="geometricPrecision" stroke-miterlimit="1.45" shape-rendering="geometricPrecision" transform="matrix(1,0,0,1,-76,-148)" stroke-linecap="butt">
      <rect fill="none" x="562.5" width="151" height="30" y="622" clip-path="url(#clipPath2)"/>
      <text x="583.7129" xml:space="preserve" y="641.1543" clip-path="url(#clipPath2)" font-family="sans-serif" stroke="none">Policies &amp; triggers</text>
    </g>
    <g fill="rgb(176,176,176)" text-rendering="geometricPrecision" shape-rendering="geometricPrecision" transform="matrix(1,0,0,1,-76,-148)" stroke="rgb(176,176,176)">
      <rect x="967" y="352" clip-path="url(#clipPath2)" width="176" rx="4" ry="4" height="101" stroke="none"/>
    </g>
    <g text-rendering="geometricPrecision" stroke-miterlimit="1.45" shape-rendering="geometricPrecision" transform="matrix(1,0,0,1,-76,-148)" stroke-linecap="butt">
      <rect x="967" y="352" clip-path="url(#clipPath2)" fill="none" width="176" rx="4" ry="4" height="101"/>
      <text x="1010.6299" font-size="15px" y="472.9233" clip-path="url(#clipPath2)" font-family="sans-serif" stroke="none" xml:space="preserve">Service hub</text>
      <line y2="476.4609" fill="none" x1="1010.6299" clip-path="url(#clipPath2)" x2="1099.3701" y1="476.4609"/>
    </g>
    <g fill="red" text-rendering="geometricPrecision" shape-rendering="geometricPrecision" transform="matrix(1,0,0,1,-76,-148)" stroke="red">
      <rect x="979.5" width="151" height="30" y="364" clip-path="url(#clipPath2)" stroke="none"/>
    </g>
    <g text-rendering="geometricPrecision" stroke-miterlimit="1.45" shape-rendering="geometricPrecision" transform="matrix(1,0,0,1,-76,-148)" stroke-linecap="butt">
      <rect fill="none" x="979.5" width="151" height="30" y="364" clip-path="url(#clipPath2)"/>
      <text x="1006.751" xml:space="preserve" y="383.1543" clip-path="url(#clipPath2)" font-family="sans-serif" stroke="none">running process</text>
    </g>
    <g fill="rgb(176,176,176)" text-rendering="geometricPrecision" shape-rendering="geometricPrecision" transform="matrix(1,0,0,1,-76,-148)" stroke="rgb(176,176,176)">
      <rect x="120" y="560" clip-path="url(#clipPath2)" width="176" rx="4" ry="4" height="101" stroke="none"/>
    </g>
    <g text-rendering="geometricPrecision" stroke-miterlimit="1.45" shape-rendering="geometricPrecision" transform="matrix(1,0,0,1,-76,-148)" stroke-linecap="butt">
      <rect x="120" y="560" clip-path="url(#clipPath2)" fill="none" width="176" rx="4" ry="4" height="101"/>
      <text x="131.2971" font-size="15px" y="680.9233" clip-path="url(#clipPath2)" font-family="sans-serif" stroke="none" xml:space="preserve">Scholarly dashboard</text>
      <line y2="684.4609" fill="none" x1="131.2971" clip-path="url(#clipPath2)" x2="284.7029" y1="684.4609"/>
    </g>
    <g fill="rgb(255,102,0)" text-rendering="geometricPrecision" shape-rendering="geometricPrecision" transform="matrix(1,0,0,1,-76,-148)" stroke="rgb(255,102,0)">
      <rect x="1067.5" width="63" height="30" y="409" clip-path="url(#clipPath2)" stroke="none"/>
    </g>
    <g text-rendering="geometricPrecision" stroke-miterlimit="1.45" shape-rendering="geometricPrecision" transform="matrix(1,0,0,1,-76,-148)" stroke-linecap="butt">
      <rect fill="none" x="1067.5" width="63" height="30" y="409" clip-path="url(#clipPath2)"/>
      <text x="1076.207" xml:space="preserve" y="428.1543" clip-path="url(#clipPath2)" font-family="sans-serif" stroke="none">storage</text>
    </g>
    <g fill="rgb(204,153,255)" text-rendering="geometricPrecision" shape-rendering="geometricPrecision" transform="matrix(1,0,0,1,-76,-148)" stroke="rgb(204,153,255)">
      <rect x="132.5" width="151" height="30" y="618" clip-path="url(#clipPath2)" stroke="none"/>
    </g>
    <g text-rendering="geometricPrecision" stroke-miterlimit="1.45" shape-rendering="geometricPrecision" transform="matrix(1,0,0,1,-76,-148)" stroke-linecap="butt">
      <rect fill="none" x="132.5" width="151" height="30" y="618" clip-path="url(#clipPath2)"/>
      <text x="153.7129" xml:space="preserve" y="637.1543" clip-path="url(#clipPath2)" font-family="sans-serif" stroke="none">Policies &amp; triggers</text>
      <path fill="none" d="M638 461.002 L638 552.0129" clip-path="url(#clipPath2)"/>
      <path d="M638 453.002 L633 465.002 L638 462.002 L643 465.002 Z" clip-path="url(#clipPath2)" stroke="none"/>
      <path d="M638 560.0129 L643 548.0129 L638 551.0129 L633 548.0129 Z" clip-path="url(#clipPath2)" stroke="none"/>
      <text x="491.0898" xml:space="preserve" y="498.3599" clip-path="url(#clipPath2)" font-family="sans-serif" stroke="none">4. Check affiliation + </text>
      <text x="507.918" xml:space="preserve" y="512.3287" clip-path="url(#clipPath2)" font-family="sans-serif" stroke="none">retrieve policies</text>
      <text x="489.707" xml:space="preserve" y="526.2974" clip-path="url(#clipPath2)" font-family="sans-serif" stroke="none">of affiliated institution</text>
      <path fill="none" d="M612.1667 408 L621.2404 398.7201" clip-path="url(#clipPath2)"/>
      <path d="M626.8333 393 L614.8689 398.0845 L620.5413 399.4351 L622.019 405.0757 Z" clip-path="url(#clipPath2)" stroke="none"/>
      <text x="635.5222" xml:space="preserve" y="421.2409" clip-path="url(#clipPath2)" font-family="sans-serif" stroke="none">3. notify event</text>
      <path fill="none" d="M660.7932 362.9986 L661.0937 362.0307 L661.5 358 L661.0937 353.9693 L659.9283 350.2151 L658.0843 346.8178 L655.6422 343.8578 L652.6822 341.4157 L649.2849 339.5717 L645.5307 338.4063 L641.5 338 L637.4693 338.4063 L633.7151 339.5717 L630.3178 341.4157 L627.3578 343.8578 L624.9157 346.8178 L623.0717 350.2151 L621.9063 353.9693 L621.8015 355.0089 L621.8155 355.1079" clip-path="url(#clipPath2)"/>
      <path d="M622.2117 363.0981 L626.6113 350.8652 L621.766 354.1091 L616.6235 351.3604 Z" clip-path="url(#clipPath2)" stroke="none"/>
      <text x="595.248" xml:space="preserve" y="307.4199" clip-path="url(#clipPath2)" font-family="sans-serif" stroke="none">5. Evaluate policies.</text>
      <text x="570.5449" xml:space="preserve" y="321.3887" clip-path="url(#clipPath2)" font-family="sans-serif" stroke="none">6. Fire "Registration" trigger</text>
      <path fill="none" d="M717 378.1826 L971.5 378.7981" clip-path="url(#clipPath2)"/>
      <path d="M979.5 378.8174 L967.5121 373.7884 L970.5 378.7957 L967.4879 383.7884 Z" clip-path="url(#clipPath2)" stroke="none"/>
      <text x="769.3623" xml:space="preserve" y="405.67" clip-path="url(#clipPath2)" font-family="sans-serif" stroke="none">7. Call registration service</text>
      <text x="770.0244" xml:space="preserve" y="419.6388" clip-path="url(#clipPath2)" font-family="sans-serif" stroke="none">(Or again using an inbox) </text>
      <path fill="none" d="M1055 364 L1055 274 L168.5 274 L168.5 356" clip-path="url(#clipPath2)"/>
      <path d="M168.5 364 L173.5 352 L168.5 355 L163.5 352 Z" clip-path="url(#clipPath2)" stroke="none"/>
      <text x="775.0654" xml:space="preserve" y="248.1543" clip-path="url(#clipPath2)" font-family="sans-serif" stroke="none">9. add registration token to artefact metadata</text>
      <path fill="none" d="M1079.5 363.9695 L1079.5 209 L261.5 209 L261.5 422 L207.9995 422.5753" clip-path="url(#clipPath2)"/>
      <path d="M200 422.6613 L212.0531 427.532 L208.9995 422.5645 L211.9456 417.5326 Z" clip-path="url(#clipPath2)" stroke="none"/>
      <text x="813.9141" xml:space="preserve" y="176.1699" clip-path="url(#clipPath2)" font-family="sans-serif" stroke="none">10. Notify artefact manager + orchestrator</text>
      <text x="855.5127" xml:space="preserve" y="190.1387" clip-path="url(#clipPath2)" font-family="sans-serif" stroke="none">of registration lifecycle event</text>
      <path fill="none" d="M1079.5 363.9907 L1079.5 211 L541.5 211 L541.5 403 L558.4661 409.0593" clip-path="url(#clipPath2)"/>
      <path d="M566 411.75 L556.3808 403.0052 L557.5244 408.723 L553.0174 412.4226 Z" clip-path="url(#clipPath2)" stroke="none"/>
      <path fill="none" d="M120.0277 610.5 L91.5 610.5 L91.5 379 L129 379" clip-path="url(#clipPath2)"/>
      <path d="M137 379 L125 374 L128 379 L125 384 Z" clip-path="url(#clipPath2)" stroke="none"/>
      <text x="100.5986" xml:space="preserve" y="518.6543" clip-path="url(#clipPath2)" font-family="sans-serif" stroke="none">1. TRIGGER: Create artefact</text>
      <path fill="none" d="M296.032 610.4771 L559.3961 427.586" clip-path="url(#clipPath2)"/>
      <path d="M565.967 423.0229 L553.2586 425.7607 L558.5747 428.1564 L558.9625 433.9745 Z" clip-path="url(#clipPath2)" stroke="none"/>
      <text x="303" xml:space="preserve" y="623.9001" clip-path="url(#clipPath2)" font-family="sans-serif" stroke="none">2. Notify artefact creation</text>
      <text x="336.9023" xml:space="preserve" y="637.8688" clip-path="url(#clipPath2)" font-family="sans-serif" stroke="none">lifecycle event</text>
      <path fill="none" d="M1069.6666 394 L1078.7404 403.2799" clip-path="url(#clipPath2)"/>
      <path d="M1084.3334 409 L1079.5189 396.9243 L1078.0413 402.5649 L1072.3689 403.9156 Z" clip-path="url(#clipPath2)" stroke="none"/>
      <text x="984.4724" xml:space="preserve" y="419.1435" clip-path="url(#clipPath2)" font-family="sans-serif" stroke="none">8. create +</text>
      <text x="984.0095" xml:space="preserve" y="433.1122" clip-path="url(#clipPath2)" font-family="sans-serif" stroke="none">store token</text>
    </g>
  </g>
</svg>
